<svg xmlns="http://www.w3.org/2000/svg" viewBox="0 0 512 512">
  <defs>
    <linearGradient id="grad" x1="0%" y1="0%" x2="100%" y2="100%">
      <stop offset="0%" style="stop-color:#8b5cf6;stop-opacity:1" />
      <stop offset="100%" style="stop-color:#6366f1;stop-opacity:1" />
    </linearGradient>
  </defs>
  <rect width="512" height="512" rx="96" fill="url(#grad)"/>
  <g fill="white">
    <!-- Book icon -->
    <path d="M128 96h256c17.7 0 32 14.3 32 32v256c0 17.7-14.3 32-32 32H128c-17.7 0-32-14.3-32-32V128c0-17.7 14.3-32 32-32z" fill="none" stroke="white" stroke-width="24"/>
    <line x1="256" y1="96" x2="256" y2="416" stroke="white" stroke-width="24"/>
    <!-- Lines on book -->
    <line x1="160" y1="160" x2="224" y2="160" stroke="white" stroke-width="16" stroke-linecap="round"/>
    <line x1="160" y1="208" x2="224" y2="208" stroke="white" stroke-width="16" stroke-linecap="round"/>
    <line x1="160" y1="256" x2="224" y2="256" stroke="white" stroke-width="16" stroke-linecap="round"/>
    <line x1="288" y1="160" x2="352" y2="160" stroke="white" stroke-width="16" stroke-linecap="round"/>
    <line x1="288" y1="208" x2="352" y2="208" stroke="white" stroke-width="16" stroke-linecap="round"/>
    <line x1="288" y1="256" x2="352" y2="256" stroke="white" stroke-width="16" stroke-linecap="round"/>
    <!-- Star -->
    <path d="M256 300l-24 48-53 8 38 37-9 52 48-25 48 25-9-52 38-37-53-8z" fill="#fbbf24"/>
  </g>
</svg>
